<?xml version="1.0" encoding="UTF-8" standalone="no"?>
<!-- Created with Inkscape (http://www.inkscape.org/) -->

<svg
   version="1.1"
   id="svg1"
   width="129.97937"
   height="148.61884"
   viewBox="0 0 129.97937 148.61884"
   xmlns="http://www.w3.org/2000/svg"
   xmlns:svg="http://www.w3.org/2000/svg">
  <defs
     id="defs1" />
  <g
     id="g1"
     transform="translate(-84.72493,-43.759215)">
    <g
       id="g15"
       transform="translate(-140.27507,-75.111825)">
      <path
         style="fill:#d4a156"
         d="m 293.91667,257.58479 0.58333,-62.68797 17,-9.80097 24.9234,-13.9719 L 347.1402,165 347.5,227.2369 Z M 237,158.01963 254.37491,147.70233 308,178.50142 290.09096,188.79664 Z m 42,-23.80039 10.97788,-7.31813 53.0211,31.05961 -10.99051,6.70243 z"
         id="path16" />
      <path
         style="fill:#94682d"
         d="M 225.69479,230.4916 225,157.80242 l 64.99724,-38.93138 64.98213,38.23912 -0.74468,73.4329 -63.40437,36.94681 z M 347.5,227.2369 347.1402,165 l -10.7168,6.12395 -0.22871,29.92087 -11.65797,-2.78288 -13.26779,15.93027 0.23107,-29.09636 -17,9.80097 -0.5833,62.68797 z M 308,178.50142 254.37491,147.70233 237,158.01963 l 53.09096,30.77701 z m 34.99898,-20.5407 -53.0211,-31.05961 -10.97788,7.31813 53.00847,30.44391 z"
         id="path15" />
    </g>
  </g>
</svg>
